<?xml version="1.0" encoding="UTF-8" standalone="no"?>
<!DOCTYPE svg PUBLIC "-//W3C//DTD SVG 20010904//EN"
              "http://www.w3.org/TR/2001/REC-SVG-20010904/DTD/svg10.dtd">

<svg xmlns="http://www.w3.org/2000/svg"
     width="5in" height="3.75in"
     viewBox="0 0 360 270">
  <path id="Neimenovano"
        fill="none" stroke="black" stroke-width="1"
        d="M 68.27,81.55
           C 65.45,87.73 42.45,125.00 74.18,141.91
             80.30,145.55 97.91,144.09 104.00,142.55
             106.90,142.24 154.45,129.36 154.45,129.36
             154.45,129.36 210.18,114.45 210.18,114.45
             210.18,114.45 267.82,99.18 267.82,99.18
             267.82,99.18 331.55,82.27 331.55,82.27
             331.55,82.27 286.82,101.73 286.82,101.73
             286.82,101.73 247.18,118.64 247.18,118.64
             247.18,118.64 209.00,134.64 209.00,134.64
             209.00,134.64 164.82,153.18 164.82,153.18
             164.82,153.18 127.55,169.36 127.55,169.36
             127.55,169.36 104.55,179.09 104.55,179.09
             100.45,181.18 90.58,183.89 84.82,185.55
             84.00,186.04 73.36,188.36 73.36,188.36
             69.96,189.51 54.78,190.02 51.18,188.55
             51.02,188.59 27.04,183.96 25.17,161.04
             24.70,143.52 30.70,133.04 31.18,131.36
             36.09,118.82 52.67,98.83 53.36,98.00
             53.59,97.84 68.27,81.55 68.27,81.55 Z" />
</svg>
